
<svg width="486px" height="147px" viewBox="0 0 486 147" version="1.1" xmlns="http://www.w3.org/2000/svg" xmlns:xlink="http://www.w3.org/1999/xlink">
    <!-- Generator: Sketch 50.2 (55047) - http://www.bohemiancoding.com/sketch -->
    <desc>Created with Sketch.</desc>
    <defs></defs>
    <g id="HomePage" stroke="none" stroke-width="1" fill="none" fill-rule="evenodd" fill-opacity="0.487630208">
        <g id="Desktop-HD" transform="translate(-83.000000, -325.000000)" fill="#F10404">
            <g id="friendlystock-chat-bubble-98" transform="translate(83.000000, 325.000000)">
                <path d="M32.1254848,43.1693337 C0.176261674,43.4336086 0.747695483,49.7813256 0.176261674,64.0636887 C-0.454523954,79.8696319 0.831892251,107.051554 0.554456997,119.61837 C0.435753355,125.006251 0.71594916,130.923961 8.34886935,134.985988 C17.5553029,139.885632 33.5168019,140.117273 47.5293526,139.971377 C106.571992,139.359002 358.346556,145.58322 457.927869,146.982021 C488.293916,147.408828 483.821826,140.213896 485.111003,127.805133 C487.373273,106.029009 484.612723,71.9017114 484.540949,47.1366568 C484.49402,31.1835387 469.890711,31.8016732 419.691493,33.7328637 C351.078028,36.3717735 261.00819,38.2005815 186.473345,40.3333376 C163.469684,39.0535559 140.75726,17.818779 132.762708,11.8134036 C124.768156,5.80802823 112.643821,-0.167272268 97.4262902,0.00357858143 C109.4264,8.05660459 116.769463,20.2759597 118.769481,31.4734092 C119.82125,37.3629644 109.830821,42.4161822 97.0826018,42.4360188 C77.94371,42.4667336 51.1015041,43.0125604 32.1254848,43.1693337" id="Fill-1"></path>
            </g>
        </g>
    </g>
</svg>
