
<svg width="71px" height="72px" viewBox="0 0 71 72" version="1.1" xmlns="http://www.w3.org/2000/svg" xmlns:xlink="http://www.w3.org/1999/xlink">
    <!-- Generator: Sketch 50.2 (55047) - http://www.bohemiancoding.com/sketch -->
    <desc>Created with Sketch.</desc>
    <defs>
        <filter x="-10.3%" y="-8.6%" width="120.6%" height="120.3%" filterUnits="objectBoundingBox" id="filter-1">
            <feOffset dx="0" dy="1" in="SourceAlpha" result="shadowOffsetOuter1"></feOffset>
            <feGaussianBlur stdDeviation="2" in="shadowOffsetOuter1" result="shadowBlurOuter1"></feGaussianBlur>
            <feColorMatrix values="0 0 0 0 0   0 0 0 0 0   0 0 0 0 0  0 0 0 0.5 0" type="matrix" in="shadowBlurOuter1" result="shadowMatrixOuter1"></feColorMatrix>
            <feMerge>
                <feMergeNode in="shadowMatrixOuter1"></feMergeNode>
                <feMergeNode in="SourceGraphic"></feMergeNode>
            </feMerge>
        </filter>
    </defs>
    <g id="HomePage" stroke="none" stroke-width="1" fill="none" fill-rule="evenodd">
        <g id="Desktop-HD" transform="translate(-723.000000, -1744.000000)">
            <g id="Footer" transform="translate(57.000000, 1413.000000)">
                <g id="github" filter="url(#filter-1)" transform="translate(670.000000, 334.000000)">
                    <rect id="Rectangle-2" fill="#FFFFFF" x="0" y="0" width="63" height="64" rx="4"></rect>
                    <path d="M4.00071403,0 C1.79118068,0 7.10542736e-15,1.79537646 7.10542736e-15,4.00348663 L7.10542736e-15,59.9965134 C7.10542736e-15,62.207578 1.78724016,64 4.00770662,64 L21,64 C22.75,64 23.6940506,61.4754162 23.6940506,60.6328892 C23.6940506,59.8722379 23.6648396,57.3594475 23.6512771,54.6939985 C14.8878738,56.6236229 13.0386917,50.9303592 13.0386917,50.9303592 C11.6057707,47.2433132 9.54115482,46.2629182 9.54115482,46.2629182 C6.68313795,44.2831119 9.75658857,44.3237856 9.75658857,44.3237856 C12.9197599,44.5488116 14.5853277,47.6109614 14.5853277,47.6109614 C17.3948337,52.4875815 21.9544114,51.0777354 23.7519519,50.2626764 C24.0346758,48.2009944 24.8510289,46.7937894 25.7518861,45.9972185 C18.7552469,45.1906112 11.4002481,42.4554358 11.4002481,30.2327202 C11.4002481,26.7500993 12.6307763,23.9045238 14.6458374,21.6706388 C14.3187747,20.8672009 13.2405629,17.6228118 14.9509911,13.228994 C14.9509911,13.228994 17.5961826,12.3716766 23.6158063,16.4987381 C26.1285036,15.7919663 28.8232498,15.437524 31.5002607,15.4253747 C34.1772716,15.437524 36.8741047,15.7919663 39.3914963,16.4987381 C45.4038173,12.3716766 48.0453574,13.228994 48.0453574,13.228994 C49.7599584,17.6228118 48.6812252,20.8672009 48.3541624,21.6706388 C50.3739188,23.9045238 51.5961004,26.7500993 51.5961004,30.2327202 C51.5961004,42.4844885 44.2270167,45.1821595 37.2126431,45.9718635 C38.3424964,46.9617667 39.3492443,48.9030122 39.3492443,51.8790604 C39.3492443,56.1471595 39.3127306,59.5822396 39.3127306,60.6328892 C39.3127306,61.481755 39.3127322,64 42,64 L58.9997502,64 C61.2090272,64 63,62.2046235 63,59.9965134 L63,4.00348663 C63,1.79242202 61.2160145,0 58.999286,0 L4.00071403,0 Z M11.9307474,45.7996605 C11.8613704,45.9581295 11.6151603,46.0056701 11.3908593,45.8968548 C11.1623846,45.7927935 11.0340632,45.5767474 11.1081346,45.4177501 C11.1759471,45.254527 11.4226787,45.2090993 11.6506311,45.3184428 C11.8796273,45.4225043 12.0100356,45.6406632 11.9307474,45.7996605 L11.9307474,45.7996605 L11.9307474,45.7996605 Z M13.2066567,47.2406721 C13.0564271,47.3817095 12.7627491,47.3162091 12.5634862,47.0932959 C12.3574412,46.870911 12.3188406,46.5735175 12.4711571,46.4303672 C12.6260811,46.2893298 12.9108918,46.3553585 13.1174583,46.5777434 C13.3235024,46.8027694 13.3636676,47.09805 13.2066567,47.2406721 L13.2066567,47.2406721 L13.2066567,47.2406721 Z M14.4486606,49.0778564 C14.2556574,49.2136114 13.9400703,49.086308 13.7449803,48.8026484 C13.5519772,48.5189889 13.5519772,48.1788087 13.7491532,48.0425254 C13.9447647,47.906242 14.2556574,48.0287914 14.4533549,48.310338 C14.6458374,48.5987516 14.6458374,48.9389318 14.4486606,49.0778564 L14.4486606,49.0778564 L14.4486606,49.0778564 Z M16.1502214,50.8527093 C15.9775612,51.0455133 15.6098118,50.9937468 15.3406496,50.7306883 C15.0652284,50.4734402 14.9885487,50.1084332 15.1617304,49.9156292 C15.3364767,49.722297 15.7063129,49.7767047 15.9775612,50.0376504 C16.2508963,50.2943702 16.3343573,50.6620183 16.1502214,50.8527093 L16.1502214,50.8527093 L16.1502214,50.8527093 Z M18.4975612,51.8832863 C18.4214029,52.1331391 18.0672161,52.2467085 17.7104199,52.1405343 C17.3541462,52.0311907 17.1209771,51.7385513 17.1929624,51.4860572 C17.2670338,51.2346197 17.6227861,51.1162962 17.9821897,51.2298657 C18.3379428,51.338681 18.5716334,51.6292076 18.4975612,51.8832863 L18.4975612,51.8832863 L18.4975612,51.8832863 Z M21.0754626,52.0745055 C21.0843307,52.3375642 20.7817846,52.5557231 20.4072531,52.5604772 C20.0306356,52.5689289 19.7260026,52.3560522 19.7218297,52.0972194 C19.7218297,51.8315197 20.0175946,51.6154736 20.3942121,51.6091348 C20.7687436,51.6017396 21.0754626,51.8130316 21.0754626,52.0745055 L21.0754626,52.0745055 L21.0754626,52.0745055 Z M23.4744439,51.6609013 C23.5193043,51.9176212 23.2590102,52.181208 22.8870871,52.2514626 C22.5214237,52.319076 22.1828853,52.160607 22.1364604,51.9060002 C22.0910786,51.6429415 22.3560671,51.3793548 22.7212089,51.3112131 C23.0936536,51.2457125 23.4269761,51.3999557 23.4744439,51.6609013 L23.4744439,51.6609013 L23.4744439,51.6609013 Z" id="Fill-4" fill="#161614"></path>
                </g>
            </g>
        </g>
    </g>
</svg>
