
<svg width="48px" height="59px" viewBox="0 0 48 59" version="1.1" xmlns="http://www.w3.org/2000/svg" xmlns:xlink="http://www.w3.org/1999/xlink">
    <!-- Generator: Sketch 50.2 (55047) - http://www.bohemiancoding.com/sketch -->
    <desc>Created with Sketch.</desc>
    <defs>
        <filter x="0.0%" y="0.0%" width="100.0%" height="100.0%" filterUnits="objectBoundingBox" id="filter-1">
            <feOffset dx="0" dy="0" in="SourceAlpha" result="shadowOffsetOuter1"></feOffset>
            <feColorMatrix values="0 0 0 0 1   0 0 0 0 1   0 0 0 0 1  0 0 0 1 0" type="matrix" in="shadowOffsetOuter1" result="shadowMatrixOuter1"></feColorMatrix>
            <feMerge>
                <feMergeNode in="shadowMatrixOuter1"></feMergeNode>
                <feMergeNode in="SourceGraphic"></feMergeNode>
            </feMerge>
        </filter>
    </defs>
    <g id="Page-1" stroke="none" stroke-width="1" fill="none" fill-rule="evenodd">
        <g id="Icon-Set-Filled" transform="translate(-509.000000, -1231.000000)" fill="#FFFFFF" fill-rule="nonzero">
            <g id="noun_Rabbit_412922" transform="translate(483.000000, 1231.000000)">
                <g id="Group" filter="url(#filter-1)" transform="translate(26.000000, 0.000000)">
                    <path d="M9.2,14.3 C10.6,20.8 11.2,26.5 11.2,26.6 C11.2,26.6 11.2,26.6 11.2,26.6 C11.2,26.6 11.2,26.6 11.2,26.7 C11.2,26.7 11.2,26.7 11.2,26.8 C11.2,26.8 11.2,26.8 11.2,26.9 C11.2,26.9 11.2,26.9 11.2,26.9 C11.2,26.9 11.2,26.9 11.2,26.9 C11.2,26.9 11.2,26.9 11.2,26.9 C11.2,26.9 11.2,26.9 11.2,26.9 C11.2,26.9 11.2,26.9 11.2,26.9 C11.2,26.9 11.2,26.9 11.2,26.9 C7.7,30.4 5.7,35.1 5.7,40.1 C5.7,50.4 14.1,58.7 24.3,58.7 C34.5,58.7 42.9,50.3 42.9,40.1 C42.9,35.1 40.9,30.3 37.3,26.8 C37.3,26.8 37.3,26.8 37.3,26.8 C37.3,26.8 37.3,26.8 37.3,26.8 C37.3,26.8 37.3,26.8 37.3,26.8 C37.3,26.8 37.3,26.8 37.3,26.8 C37.3,26.8 37.3,26.8 37.3,26.8 C37.3,26.8 37.3,26.8 37.3,26.8 C37.3,26.8 37.3,26.8 37.3,26.7 C37.3,26.7 37.3,26.7 37.3,26.6 C37.3,26.6 37.3,26.6 37.3,26.5 C37.3,26.5 37.3,26.5 37.3,26.5 C37.3,26.4 37.9,20.7 39.3,14.2 C40.6,8.2 42.2,3.4 43.9,0.1 C42.6,0.3 41.1,1.4 39.9,3.2 C37.1,7.5 35.1,17.5 34.1,23.8 C31.2,22 27.8,21 24.3,21 C20.6,21 17.1,22.1 14.2,23.9 C13.2,17.6 11.2,7.4 8.4,3.1 C7.3,1.4 5.9,0.3 4.6,0.1 C6.3,3.4 7.9,8.2 9.2,14.3 Z M33.2,33.8 C35.5,33.8 37.4,35.7 37.4,38 C37.4,38.6 37.3,39.3 37,39.8 C36.9,40 36.7,40.1 36.5,40.1 C36.4,40.1 36.3,40.1 36.3,40 C36,39.9 35.9,39.6 36.1,39.3 C36.3,38.9 36.4,38.4 36.4,37.9 C36.4,36.2 35,34.7 33.2,34.7 C31.5,34.7 30,36.1 30,37.9 C30,38.4 30.1,38.8 30.3,39.3 C30.4,39.6 30.3,39.9 30.1,40 C29.8,40.1 29.5,40 29.4,39.8 C29.2,39.3 29,38.7 29,38 C29,35.7 30.9,33.8 33.2,33.8 Z M21.9,42.8 C21.7,42.6 21.6,42.3 21.7,42.1 C21.9,41.9 22.2,41.8 22.4,41.9 L24.2,43.1 L26,41.9 C26.2,41.7 26.6,41.8 26.7,42.1 C26.9,42.3 26.8,42.7 26.5,42.8 L24.8,44 C24.8,44 24.8,44 24.8,44 C24.8,45.6 26.1,46.8 27.6,46.8 C29.2,46.8 30.4,45.5 30.4,44 C30.4,43.5 30.3,43 30,42.6 C29.9,42.3 29.9,42 30.2,41.9 C30.5,41.8 30.8,41.8 30.9,42.1 C31.2,42.7 31.4,43.3 31.4,44 C31.4,46 29.8,47.7 27.8,47.9 L27.8,49.8 C27.8,50.9 26.9,51.7 25.9,51.7 L22.3,51.7 C21.2,51.7 20.4,50.8 20.4,49.8 L20.4,47.9 C18.6,47.7 17,46 17,44 C17,43.3 17.2,42.7 17.5,42.1 C17.6,41.8 18,41.8 18.2,41.9 C18.5,42 18.5,42.4 18.4,42.6 C18.2,43 18,43.5 18,44 C18,45.6 19.3,46.8 20.8,46.8 C22.4,46.8 23.6,45.5 23.6,44 C23.6,44 23.6,44 23.6,44 L21.9,42.8 Z M15.3,33.8 C17.6,33.8 19.5,35.7 19.5,38 C19.5,38.6 19.4,39.3 19.1,39.8 C19,40 18.8,40.1 18.6,40.1 C18.5,40.1 18.4,40.1 18.4,40 C18.1,39.9 18,39.6 18.2,39.3 C18.4,38.9 18.5,38.4 18.5,37.9 C18.5,36.2 17.1,34.7 15.3,34.7 C13.6,34.7 12.1,36.1 12.1,37.9 C12.1,38.4 12.2,38.8 12.4,39.3 C12.5,39.6 12.4,39.9 12.2,40 C11.9,40.1 11.6,40 11.5,39.8 C11.2,39.2 11.1,38.6 11.1,38 C11.1,35.7 12.9,33.8 15.3,33.8 Z" id="Shape"></path>
                    <path d="M21.6,49.8 C21.6,50.3 22,50.7 22.5,50.7 L23.8,50.7 L23.8,46.7 C23.2,47.3 22.5,47.7 21.7,47.9 L21.7,49.8 L21.6,49.8 Z" id="Shape"></path>
                    <path d="M26.9,49.8 L26.9,47.8 C26.1,47.6 25.3,47.2 24.8,46.6 L24.8,50.6 L26.1,50.6 C26.5,50.6 26.9,50.3 26.9,49.8 Z" id="Shape"></path>
                    <path d="M10.1,26.4 C9.9,24.3 7.9,8.3 3.2,0 C0.6,0.5 -1,5 2.3,14.8 C4.4,20.9 6.4,25.6 8,29 C8.7,28.1 9.4,27.2 10.1,26.4 Z" id="Shape"></path>
                    <path d="M45,0 C40.4,8.4 38.5,24.1 38.2,26.2 C38.9,26.9 39.6,27.7 40.2,28.6 C41.8,25.2 43.7,20.6 45.7,14.7 C49.1,5.2 47.6,0.7 45,0 Z" id="Shape"></path>
                </g>
            </g>
        </g>
    </g>
</svg>
