
<svg width="72px" height="72px" viewBox="0 0 72 72" version="1.1" xmlns="http://www.w3.org/2000/svg" xmlns:xlink="http://www.w3.org/1999/xlink">
    <!-- Generator: Sketch 50.2 (55047) - http://www.bohemiancoding.com/sketch -->
    <desc>Created with Sketch.</desc>
    <defs>
        <filter x="-9.4%" y="-9.4%" width="118.8%" height="118.8%" filterUnits="objectBoundingBox" id="filter-1">
            <feOffset dx="0" dy="0" in="SourceAlpha" result="shadowOffsetOuter1"></feOffset>
            <feGaussianBlur stdDeviation="2" in="shadowOffsetOuter1" result="shadowBlurOuter1"></feGaussianBlur>
            <feColorMatrix values="0 0 0 0 0   0 0 0 0 0   0 0 0 0 0  0 0 0 0.5 0" type="matrix" in="shadowBlurOuter1" result="shadowMatrixOuter1"></feColorMatrix>
            <feMerge>
                <feMergeNode in="shadowMatrixOuter1"></feMergeNode>
                <feMergeNode in="SourceGraphic"></feMergeNode>
            </feMerge>
        </filter>
    </defs>
    <g id="HomePage" stroke="none" stroke-width="1" fill="none" fill-rule="evenodd">
        <g id="Desktop-HD" transform="translate(-634.000000, -1743.000000)">
            <g id="Footer" transform="translate(57.000000, 1413.000000)">
                <g id="linkedin" filter="url(#filter-1)" transform="translate(581.000000, 334.000000)">
                    <rect id="Rectangle-2" fill="#117EB8" x="0" y="0" width="64" height="64" rx="4"></rect>
                    <path d="M11.6774986,24.6132657 L20.1746749,24.6132657 L20.1746749,51.9996015 L11.6774986,51.9996015 L11.6774986,24.6132657 Z M15.927877,11 C18.6442364,11 20.8517757,13.2113587 20.8517757,15.9336133 C20.8517757,18.658259 18.6442364,20.8696176 15.927877,20.8696176 C13.2043567,20.8696176 11,18.658259 11,15.9336133 C11.0003978,13.2113587 13.2047545,11 15.927877,11 Z M25.5043567,24.6132657 L33.6538328,24.6132657 L33.6538328,28.3553197 L33.7676111,28.3553197 C34.9022123,26.2021442 37.6734717,23.9322039 41.807287,23.9322039 C50.4114787,23.9322039 52,29.6046636 52,36.9779845 L52,51.9996015 L43.508791,51.9996015 L43.508791,38.6816352 C43.508791,35.5058708 43.4507083,31.4206956 39.0933146,31.4206956 C34.6722686,31.4206956 33.9935766,34.8802026 33.9935766,38.4520907 L33.9935766,52 L25.5039589,52 L25.5039589,24.6132657 L25.5043567,24.6132657 Z" id="Shape" fill="#FFFFFF"></path>
                </g>
            </g>
        </g>
    </g>
</svg>
