
<svg width="25px" height="25px" viewBox="0 0 14 14" version="1.1" xmlns="http://www.w3.org/2000/svg" xmlns:xlink="http://www.w3.org/1999/xlink">
    <!-- Generator: Sketch 50.2 (55047) - http://www.bohemiancoding.com/sketch -->
    <desc>Created with Sketch.</desc>
    <defs>
        <path d="M50,259 C46.1340066,259 43,255.865993 43,252 C43,248.134007 46.1340066,245 50,245 C53.8659934,245 57,248.134007 57,252 C57,255.865993 53.8659934,259 50,259 Z M52.0072,255.102925 C51.9396724,255.134368 52.0072,255.102925 52.0072,255.102925 C51.9396724,255.134368 51.8304381,255.170724 51.6794939,255.211993 C51.5285497,255.253261 51.3934964,255.273896 51.2743299,255.273896 C51.0201081,255.273896 50.841361,255.232627 50.7380834,255.150089 C50.6348058,255.067552 50.5831678,254.912304 50.5831678,254.684342 C50.5831678,254.593944 50.5990564,254.460313 50.6308341,254.283446 C50.6626118,254.106579 50.6983613,253.949367 50.7380834,253.811804 L51.2266635,252.096204 C51.2743301,251.938989 51.3071004,251.766055 51.3249754,251.577397 C51.3428503,251.388739 51.3517877,251.257073 51.3517877,251.182396 C51.3517877,250.820802 51.2236857,250.527011 50.9674777,250.301014 C50.7112698,250.075017 50.3468245,249.962021 49.8741308,249.962021 C49.6119645,249.962021 49.3339136,250.008202 49.0399696,250.100566 C48.7460256,250.19293 48.4381835,250.303961 48.116434,250.433664 L47.9853516,250.964261 C48.0806847,250.928888 48.1948842,250.89155 48.3279535,250.852246 C48.4610227,250.812943 48.5911108,250.793291 48.7182217,250.793291 C48.9764158,250.793291 49.1511906,250.836524 49.2425516,250.922993 C49.3339126,251.009461 49.3795924,251.162743 49.3795924,251.382844 C49.3795924,251.504686 49.3646968,251.639299 49.3349052,251.786688 C49.3051135,251.934077 49.2683711,252.090307 49.2246767,252.255383 L48.7360966,253.976878 C48.6924022,254.157676 48.660625,254.319801 48.6407639,254.46326 C48.6209028,254.606719 48.6109724,254.747227 48.6109724,254.88479 C48.6109724,255.238524 48.7430466,255.53035 49.007199,255.760277 C49.2713513,255.990204 49.6417549,256.105166 50.1184208,256.105166 C50.4282537,256.105166 50.7003464,256.06488 50.9347071,255.984307 C51.1690679,255.903735 51.4828682,255.786808 51.8761176,255.633523 L52.0072,255.102925 Z M52.1323242,247.90448 C52.1323242,247.605772 52.1323242,247.90448 52.1323242,247.90448 C52.1323242,247.605772 52.0181247,247.350301 51.7897223,247.138061 C51.5613199,246.925821 51.2862481,246.819702 50.9644986,246.819702 C50.6427491,246.819702 50.3666842,246.925821 50.1362957,247.138061 C49.9059072,247.350301 49.7907147,247.605772 49.7907147,247.90448 C49.7907147,248.203189 49.9059072,248.457677 50.1362957,248.667952 C50.3666842,248.878227 50.6427491,248.983363 50.9644986,248.983363 C51.2862481,248.983363 51.5613199,248.878227 51.7897223,248.667952 C52.0181247,248.457677 52.1323242,248.203189 52.1323242,247.90448 Z" id="path-1"></path>
        <filter x="-14.3%" y="-14.3%" width="128.6%" height="128.6%" filterUnits="objectBoundingBox" id="filter-2">
            <feOffset dx="0" dy="1" in="SourceAlpha" result="shadowOffsetInner1"></feOffset>
            <feComposite in="shadowOffsetInner1" in2="SourceAlpha" operator="arithmetic" k2="-1" k3="1" result="shadowInnerInner1"></feComposite>
            <feColorMatrix values="0 0 0 0 1   0 0 0 0 1   0 0 0 0 1  0 0 0 0.102912454 0" type="matrix" in="shadowInnerInner1" result="shadowMatrixInner1"></feColorMatrix>
            <feGaussianBlur stdDeviation="1.5" in="SourceAlpha" result="shadowBlurInner2"></feGaussianBlur>
            <feOffset dx="0" dy="1" in="shadowBlurInner2" result="shadowOffsetInner2"></feOffset>
            <feComposite in="shadowOffsetInner2" in2="SourceAlpha" operator="arithmetic" k2="-1" k3="1" result="shadowInnerInner2"></feComposite>
            <feColorMatrix values="0 0 0 0 1   0 0 0 0 1   0 0 0 0 1  0 0 0 0.132324219 0" type="matrix" in="shadowInnerInner2" result="shadowMatrixInner2"></feColorMatrix>
            <feMorphology radius="1" operator="erode" in="SourceAlpha" result="shadowSpreadInner3"></feMorphology>
            <feOffset dx="0" dy="0" in="shadowSpreadInner3" result="shadowOffsetInner3"></feOffset>
            <feComposite in="shadowOffsetInner3" in2="SourceAlpha" operator="arithmetic" k2="-1" k3="1" result="shadowInnerInner3"></feComposite>
            <feColorMatrix values="0 0 0 0 1   0 0 0 0 1   0 0 0 0 1  0 0 0 0.102912454 0" type="matrix" in="shadowInnerInner3" result="shadowMatrixInner3"></feColorMatrix>
            <feMerge>
                <feMergeNode in="shadowMatrixInner1"></feMergeNode>
                <feMergeNode in="shadowMatrixInner2"></feMergeNode>
                <feMergeNode in="shadowMatrixInner3"></feMergeNode>
            </feMerge>
        </filter>
    </defs>
    <g id="Page-1" stroke="none" stroke-width="1" fill="none" fill-rule="evenodd">
        <g id="Sketch-Icons---Volume-1" transform="translate(-43.000000, -245.000000)">
            <g id="Information">
                <use fill="#FFFFFF" fill-rule="evenodd" xlink:href="#path-1"></use>
                <use fill="black" fill-opacity="1" filter="url(#filter-2)" xlink:href="#path-1"></use>
            </g>
        </g>
    </g>
</svg>
